# Blender 4.2.9 LTS
# www.blender.org
o target
v -0.821890 0.686650 -0.856540
v 0.638201 -0.905785 -0.856540
v 0.847151 -0.714201 -0.856540
v -0.612940 0.878235 -0.856540
v 0.638201 -0.905785 -0.955447
v -0.821890 0.686650 -0.955447
v -0.612940 0.878235 -0.955447
v 0.847151 -0.714201 -0.955447
v -0.821890 0.686650 0.845306
v 0.638201 -0.905785 0.845306
v 0.847151 -0.714201 0.845306
v -0.612940 0.878235 0.845306
v 0.638201 -0.905785 0.944213
v -0.821890 0.686650 0.944213
v -0.612940 0.878235 0.944213
v 0.847151 -0.714201 0.944213
v -0.838292 0.686650 0.828904
v -0.838293 -0.905785 -0.631188
v -0.838293 -0.714201 -0.840137
v -0.838292 0.878235 0.619954
v -0.937199 -0.905785 -0.631188
v -0.937199 0.686650 0.828904
v -0.937199 0.878235 0.619954
v -0.937199 -0.714201 -0.840137
v 0.863554 0.686650 0.828904
v 0.863554 -0.905785 -0.631188
v 0.863553 -0.714201 -0.840138
v 0.863554 0.878235 0.619954
v 0.962460 -0.905785 -0.631188
v 0.962460 0.686650 0.828904
v 0.962460 0.878235 0.619954
v 0.962460 -0.714201 -0.840138
v -0.821890 0.852411 0.694809
v 0.638201 0.852411 -0.897627
v 0.847151 0.852411 -0.706042
v -0.612940 0.852411 0.886393
v 0.638201 0.951318 -0.897627
v -0.821890 0.951318 0.694809
v -0.612940 0.951318 0.886393
v 0.847151 0.951318 -0.706042
v -0.821890 -0.845619 0.694809
v 0.638201 -0.845619 -0.897627
v 0.847151 -0.845619 -0.706042
v -0.612940 -0.845619 0.886393
v 0.638201 -0.944526 -0.897627
v -0.821890 -0.944526 0.694809
v -0.612940 -0.944526 0.886393
v 0.847151 -0.944526 -0.706042
v -1.000000 -1.000000 1.000000
v -1.000000 1.000000 1.000000
v -1.000000 -1.000000 -1.000000
v -1.000000 1.000000 -1.000000
v 1.000000 -1.000000 1.000000
v 1.000000 1.000000 1.000000
v 1.000000 -1.000000 -1.000000
v 1.000000 1.000000 -1.000000
v -1.000000 -0.740994 0.740994
v -1.000000 0.740994 0.740994
v -1.000000 0.740994 -0.740994
v -1.000000 -0.740994 -0.740994
v -0.740994 -0.740994 -1.000000
v -0.740994 0.740994 -1.000000
v 0.740994 0.740994 -1.000000
v 0.740994 -0.740994 -1.000000
v 1.000000 -0.740994 -0.740994
v 1.000000 0.740994 -0.740994
v 1.000000 0.740994 0.740994
v 1.000000 -0.740994 0.740994
v 0.740994 -0.740994 1.000000
v 0.740994 0.740994 1.000000
v -0.740994 0.740994 1.000000
v -0.740994 -0.740994 1.000000
v -0.740994 -1.000000 -0.740994
v 0.740994 -1.000000 -0.740994
v 0.740994 -1.000000 0.740994
v -0.740994 -1.000000 0.740994
v 0.740994 1.000000 -0.740994
v -0.740994 1.000000 -0.740994
v -0.740994 1.000000 0.740994
v 0.740994 1.000000 0.740994
v -0.856540 -0.740994 0.740994
v -0.856540 0.740994 0.740994
v -0.856540 -0.740994 -0.740994
v -0.856540 0.740994 -0.740994
v -0.740994 0.740994 -0.856540
v -0.740994 -0.740994 -0.856540
v 0.740994 -0.740994 -0.856540
v 0.740994 0.740994 -0.856540
v 0.856540 0.740994 -0.740994
v 0.856540 -0.740994 -0.740994
v 0.856540 -0.740994 0.740994
v 0.856540 0.740994 0.740994
v 0.740994 0.740994 0.856540
v 0.740994 -0.740994 0.856540
v -0.740994 -0.740994 0.856540
v -0.740994 0.740994 0.856540
v 0.740994 -0.856540 -0.740994
v -0.740994 -0.856540 -0.740994
v -0.740994 -0.856540 0.740994
v 0.740994 -0.856540 0.740994
v -0.740994 0.856540 -0.740994
v 0.740994 0.856540 -0.740994
v 0.740994 0.856540 0.740994
v -0.740994 0.856540 0.740994
vn -0.0000 -0.0000 -1.0000
vn -0.7371 -0.6758 -0.0000
vn 0.7371 0.6758 -0.0000
vn -0.0000 -0.0000 1.0000
vn -1.0000 -0.0000 -0.0000
vn -0.0000 -0.6758 0.7371
vn -0.0000 0.6758 -0.7371
vn 1.0000 -0.0000 -0.0000
vn -0.0000 1.0000 -0.0000
vn -0.7371 -0.0000 -0.6758
vn 0.7371 -0.0000 0.6758
vn -0.0000 -1.0000 -0.0000
vt 0.802036 0.671821
vt 0.802036 0.457796
vt 0.830119 0.457796
vt 0.830119 0.671821
vt 0.273881 0.958403
vt 0.273881 0.800651
vt 0.283679 0.800651
vt 0.283679 0.958403
vt 0.352509 0.800651
vt 0.352509 0.958403
vt 0.342711 0.958403
vt 0.342711 0.800651
vt 0.539963 0.843249
vt 0.511880 0.843249
vt 0.511880 0.629224
vt 0.539963 0.629224
vt 0.677623 0.958403
vt 0.667825 0.958403
vt 0.667825 0.800651
vt 0.677623 0.800651
vt 0.702240 0.800651
vt 0.712038 0.800651
vt 0.712038 0.958403
vt 0.702240 0.958403
vt 0.459180 0.843249
vt 0.459180 0.629224
vt 0.487263 0.629224
vt 0.487263 0.843249
vt 0.564580 0.958403
vt 0.564580 0.800651
vt 0.574378 0.800651
vt 0.574378 0.958403
vt 0.608793 0.800651
vt 0.608793 0.958403
vt 0.598995 0.958403
vt 0.598995 0.800651
vt 0.828735 0.381863
vt 0.800651 0.381863
vt 0.800651 0.167838
vt 0.828735 0.167838
vt 0.981019 0.615548
vt 0.971221 0.615548
vt 0.971221 0.457796
vt 0.981019 0.457796
vt 0.977894 0.696438
vt 0.987692 0.696438
vt 0.987692 0.854190
vt 0.977894 0.854190
vt 0.406480 0.843249
vt 0.406480 0.629224
vt 0.434563 0.629224
vt 0.434563 0.843249
vt 0.943478 0.854190
vt 0.943478 0.696438
vt 0.953277 0.696438
vt 0.953277 0.854190
vt 0.633410 0.958403
vt 0.633410 0.800651
vt 0.643208 0.800651
vt 0.643208 0.958403
vt 0.777419 0.671821
vt 0.749335 0.671821
vt 0.749335 0.457796
vt 0.777418 0.457796
vt 0.318094 0.958403
vt 0.308296 0.958403
vt 0.308296 0.800651
vt 0.318094 0.800651
vt 0.979635 0.325590
vt 0.969837 0.325590
vt 0.969837 0.167838
vt 0.979635 0.167838
vt 0.694751 0.012308
vt 0.694751 0.159119
vt 0.680540 0.159119
vt 0.680540 0.012308
vt 0.733580 0.012308
vt 0.733580 0.159119
vt 0.719368 0.159119
vt 0.719368 0.012308
vt 0.763547 0.696438
vt 0.763547 0.843249
vt 0.749335 0.843249
vt 0.749335 0.696438
vt 0.802376 0.696438
vt 0.802376 0.843249
vt 0.788164 0.843249
vt 0.788164 0.696438
vt 0.826993 0.843249
vt 0.826993 0.696438
vt 0.841204 0.696438
vt 0.841204 0.843249
vt 0.772409 0.012308
vt 0.772409 0.159119
vt 0.758197 0.159119
vt 0.758197 0.012308
vt 0.210435 0.210435
vt 0.012308 0.210435
vt 0.037967 0.184777
vt 0.184777 0.184777
vt 0.012309 0.012308
vt 0.037967 0.037966
vt 0.210435 0.012308
vt 0.184777 0.037967
vt 0.210435 0.433179
vt 0.012308 0.433179
vt 0.037966 0.407521
vt 0.184777 0.407521
vt 0.012308 0.235052
vt 0.037967 0.260710
vt 0.210435 0.235052
vt 0.184777 0.260710
vt 0.433179 0.210435
vt 0.235052 0.210435
vt 0.260710 0.184777
vt 0.407521 0.184777
vt 0.235052 0.012308
vt 0.260710 0.037967
vt 0.433179 0.012308
vt 0.407521 0.037967
vt 0.433179 0.433179
vt 0.235052 0.433179
vt 0.260710 0.407521
vt 0.407521 0.407521
vt 0.235052 0.235052
vt 0.260710 0.260710
vt 0.433179 0.235052
vt 0.407521 0.260710
vt 0.210435 0.457796
vt 0.210435 0.655923
vt 0.184777 0.630265
vt 0.184777 0.483454
vt 0.012308 0.655923
vt 0.037967 0.630265
vt 0.012309 0.457796
vt 0.037967 0.483454
vt 0.655923 0.012308
vt 0.655923 0.210435
vt 0.630265 0.184777
vt 0.630265 0.037967
vt 0.457796 0.210435
vt 0.483454 0.184777
vt 0.457796 0.012308
vt 0.483454 0.037966
vt 0.604607 0.381863
vt 0.457796 0.381863
vt 0.457796 0.235052
vt 0.604607 0.235052
vt 0.381863 0.604607
vt 0.235052 0.604607
vt 0.235052 0.457796
vt 0.381863 0.457796
vt 0.553291 0.604607
vt 0.406480 0.604607
vt 0.406480 0.457796
vt 0.553291 0.457796
vt 0.724718 0.604607
vt 0.577908 0.604607
vt 0.577908 0.457796
vt 0.724718 0.457796
vt 0.776034 0.235052
vt 0.776034 0.381863
vt 0.629224 0.381863
vt 0.629224 0.235052
vt 0.381863 0.629224
vt 0.381863 0.776034
vt 0.235052 0.776034
vt 0.235052 0.629224
vt 0.564580 0.776034
vt 0.564580 0.629224
vt 0.578792 0.629224
vt 0.578792 0.776034
vt 0.603409 0.776034
vt 0.603409 0.629224
vt 0.617621 0.629224
vt 0.617621 0.776034
vt 0.867563 0.167838
vt 0.867563 0.314648
vt 0.853352 0.314648
vt 0.853352 0.167838
vt 0.854736 0.604607
vt 0.854736 0.457796
vt 0.868947 0.457796
vt 0.868947 0.604607
vt 0.656449 0.629224
vt 0.656449 0.776034
vt 0.642238 0.776034
vt 0.642238 0.629224
vt 0.880033 0.696438
vt 0.880033 0.843249
vt 0.865821 0.843249
vt 0.865821 0.696438
vt 0.681066 0.776034
vt 0.681066 0.629224
vt 0.695278 0.629224
vt 0.695278 0.776034
vt 0.012308 0.827350
vt 0.012308 0.680540
vt 0.026520 0.680540
vt 0.026520 0.827350
vt 0.906392 0.167838
vt 0.906392 0.314648
vt 0.892180 0.314648
vt 0.892180 0.167838
vt 0.065349 0.680540
vt 0.065349 0.827351
vt 0.051137 0.827351
vt 0.051137 0.680540
vt 0.907776 0.457796
vt 0.907776 0.604607
vt 0.893564 0.604607
vt 0.893564 0.457796
vt 0.089966 0.827351
vt 0.089966 0.680540
vt 0.104177 0.680540
vt 0.104177 0.827351
vt 0.143006 0.680540
vt 0.143006 0.827351
vt 0.128794 0.827351
vt 0.128794 0.680540
vt 0.167623 0.827351
vt 0.167623 0.680540
vt 0.181835 0.680540
vt 0.181835 0.827351
vt 0.904650 0.843249
vt 0.904650 0.696438
vt 0.918862 0.696438
vt 0.918862 0.843249
vt 0.931009 0.314648
vt 0.931009 0.167838
vt 0.945220 0.167838
vt 0.945220 0.314648
vt 0.932393 0.604607
vt 0.932393 0.457796
vt 0.946604 0.457796
vt 0.946604 0.604607
vt 0.235052 0.947462
vt 0.235052 0.800651
vt 0.249264 0.800651
vt 0.249264 0.947462
s 0
f 5/1/1 6/2/1 7/3/1 8/4/1
f 2/5/2 1/6/2 6/7/2 5/8/2
f 4/9/3 3/10/3 8/11/3 7/12/3
f 13/13/4 16/14/4 15/15/4 14/16/4
f 10/17/2 13/18/2 14/19/2 9/20/2
f 12/21/3 15/22/3 16/23/3 11/24/3
f 21/25/5 22/26/5 23/27/5 24/28/5
f 18/29/6 17/30/6 22/31/6 21/32/6
f 20/33/7 19/34/7 24/35/7 23/36/7
f 29/37/8 32/38/8 31/39/8 30/40/8
f 26/41/6 29/42/6 30/43/6 25/44/6
f 28/45/7 31/46/7 32/47/7 27/48/7
f 37/49/9 38/50/9 39/51/9 40/52/9
f 34/53/10 33/54/10 38/55/10 37/56/10
f 36/57/11 35/58/11 40/59/11 39/60/11
f 45/61/12 48/62/12 47/63/12 46/64/12
f 42/65/10 45/66/10 46/67/10 41/68/10
f 44/69/11 47/70/11 48/71/11 43/72/11
f 62/73/12 63/74/12 88/75/12 85/76/12
f 73/77/4 74/78/4 97/79/4 98/80/4
f 68/81/9 65/82/9 90/83/9 91/84/9
f 58/85/12 59/86/12 84/87/12 82/88/12
f 69/89/5 70/90/5 93/91/5 94/92/5
f 64/93/9 61/94/9 86/95/9 87/96/9
f 49/97/5 50/98/5 58/99/5 57/100/5
f 50/98/5 52/101/5 59/102/5 58/99/5
f 52/101/5 51/103/5 60/104/5 59/102/5
f 51/103/5 49/97/5 57/100/5 60/104/5
f 51/105/1 52/106/1 62/107/1 61/108/1
f 52/106/1 56/109/1 63/110/1 62/107/1
f 56/109/1 55/111/1 64/112/1 63/110/1
f 55/111/1 51/105/1 61/108/1 64/112/1
f 55/113/8 56/114/8 66/115/8 65/116/8
f 56/114/8 54/117/8 67/118/8 66/115/8
f 54/117/8 53/119/8 68/120/8 67/118/8
f 53/119/8 55/113/8 65/116/8 68/120/8
f 53/121/4 54/122/4 70/123/4 69/124/4
f 54/122/4 50/125/4 71/126/4 70/123/4
f 50/125/4 49/127/4 72/128/4 71/126/4
f 49/127/4 53/121/4 69/124/4 72/128/4
f 51/129/12 55/130/12 74/131/12 73/132/12
f 55/130/12 53/133/12 75/134/12 74/131/12
f 53/133/12 49/135/12 76/136/12 75/134/12
f 49/135/12 51/129/12 73/132/12 76/136/12
f 56/137/9 52/138/9 78/139/9 77/140/9
f 52/138/9 50/141/9 79/142/9 78/139/9
f 50/141/9 54/143/9 80/144/9 79/142/9
f 54/143/9 56/137/9 77/140/9 80/144/9
f 81/145/5 82/146/5 84/147/5 83/148/5
f 86/149/1 85/150/1 88/151/1 87/152/1
f 90/153/8 89/154/8 92/155/8 91/156/8
f 94/157/4 93/158/4 96/159/4 95/160/4
f 98/161/12 97/162/12 100/163/12 99/164/12
f 102/165/9 101/166/9 104/167/9 103/168/9
f 72/169/9 69/170/9 94/171/9 95/172/9
f 77/173/4 78/174/4 101/175/4 102/176/4
f 59/177/4 60/178/4 83/179/4 84/180/4
f 66/181/12 67/182/12 92/183/12 89/184/12
f 76/185/8 73/186/8 98/187/8 99/188/8
f 63/189/5 64/190/5 87/191/5 88/192/5
f 70/193/12 71/194/12 96/195/12 93/196/12
f 80/197/5 77/198/5 102/199/5 103/200/5
f 67/201/1 68/202/1 91/203/1 92/204/1
f 74/205/5 75/206/5 100/207/5 97/208/5
f 71/209/8 72/210/8 95/211/8 96/212/8
f 78/213/8 79/214/8 104/215/8 101/216/8
f 75/217/1 76/218/1 99/219/1 100/220/1
f 79/221/1 80/222/1 103/223/1 104/224/1
f 57/225/1 58/226/1 82/227/1 81/228/1
f 61/229/8 62/230/8 85/231/8 86/232/8
f 60/233/9 57/234/9 81/235/9 83/236/9
f 65/237/4 66/238/4 89/239/4 90/240/4
